#!OML:ASF Y:\EmotionMaleHayes\Project 1\Capture day 1\Session 1\Male1.ASF
:FULLY-SPECIFIED
:DEGREES
399
root -11.6759 16.3817 1.36513 -38.8948 64.5577 -51.1757
lowerback 24.0978 -2.40937 -11.7211
upperback 10.9265 -4.95292 -3.92116
thorax -0.494741 -2.4948 3.48807
lowerneck -14.4134 12.7811 12.203
upperneck 8.81071 15.6786 -6.4909
head 6.44983 7.58187 -2.25975
rclavicle -1.90833e-014 -6.36111e-014
rhumerus -6.4086 -13.9544 -3.17328
rradius 35.6691
rwrist -13.4727
rhand -19.8606 -37.3252
rfingers 7.12502
rthumb 6.47438 -67.2062
lclavicle -1.90833e-014 -6.36111e-014
lhumerus 25.3916 -39.6545 74.1538
lradius 46.0967
lwrist 5.89463
lhand -26.824 -27.8457
lfingers 7.12502
lthumb -0.250134 2.13393
rfemur -44.3441 -14.0836 26.9506
rtibia 51.3093
rfoot -14.8999 -0.236825
rtoes -6.90435
lfemur -6.51808 13.7807 -23.8717
ltibia 23.5127
lfoot -28.9565 14.4759
ltoes 18.5996
400
root -11.4929 16.4258 1.28521 -38.9561 65.6934 -51.9458
lowerback 24.0983 -2.38663 -11.5442
upperback 10.9406 -4.86874 -3.99876
thorax -0.51848 -2.43478 3.28987
lowerneck -14.316 12.6065 12.8532
upperneck 8.53215 15.3545 -6.80266
head 6.39231 7.4297 -2.50206
rclavicle 1.90833e-014 1.59028e-014
rhumerus -6.2507 -14.61 -4.84345
rradius 35.037
rwrist -12.696
rhand -19.9114 -37.4333
rfingers 7.12502
rthumb 6.42534 -67.3158
lclavicle 1.90833e-014 1.59028e-014
lhumerus 24.3839 -42.5389 74.3505
lradius 47.2324
lwrist 4.36041
lhand -26.9341 -28.6693
lfingers 7.12502
lthumb -0.356396 1.31011
rfemur -44.8912 -13.3058 29.8277
rtibia 49.9748
rfoot -14.158 1.88706
rtoes -9.37203
lfemur -6.07947 13.6951 -24.7776
ltibia 22.2932
lfoot -26.9634 13.5649
ltoes 17.1422
401
root -11.3002 16.468 1.20615 -39.4294 66.5063 -53.1878
lowerback 23.9985 -2.51971 -11.3506
upperback 10.9813 -4.96732 -3.75901
thorax -0.410112 -2.49025 3.45557
lowerneck -14.4586 12.5584 12.4763
upperneck 8.31076 15.3145 -6.66604
head 6.29952 7.40653 -2.41277
rclavicle 2.22639e-014 9.22361e-014
rhumerus -5.52773 -15.295 -6.59479
rradius 34.7184
rwrist -12.1994
rhand -20.2232 -37.4611
rfingers 7.12502
rthumb 6.12434 -67.3525
lclavicle 2.22639e-014 9.22361e-014
lhumerus 22.6629 -44.0928 75.5617
lradius 48.1152
lwrist 1.89251
lhand -27.184 -29.59
lfingers 7.12502
lthumb -0.597767 0.388875
rfemur -45.2453 -11.9696 32.913
rtibia 48.3894
rfoot -13.5351 4.04604
rtoes -13.2763
lfemur -5.6474 13.9071 -25.1903
ltibia 21.178
lfoot -24.7317 12.6681
ltoes 15.6796
402
root -11.1111 16.5142 1.1235 -38.6387 67.8679 -53.428
lowerback 23.654 -2.59659 -11.7345
upperback 11.0657 -5.06569 -3.66552
thorax -0.0740344 -2.57031 3.75781
lowerneck -15.1884 12.4705 12.2532
upperneck 8.18273 15.1194 -6.50085
head 6.32561 7.30298 -2.32278
rclavicle -8.90555e-014 -1.08139e-013
rhumerus -4.97224 -16.3382 -8.45861
rradius 35.1433
rwrist -11.8785
rhand -19.9582 -39.2192
rfingers 7.12502
rthumb 6.38012 -69.1031
lclavicle -8.90555e-014 -1.08139e-013
lhumerus 21.2271 -45.4844 76.6239
lradius 48.9051
lwrist -0.443849
lhand -27.2532 -30.6182
lfingers 7.12502
lthumb -0.664664 -0.63951
rfemur -46.1054 -10.6595 35.0797
rtibia 46.9588
rfoot -13.4894 6.40196
rtoes -18.0698
lfemur -5.76929 14.0004 -26.5747
ltibia 20.2842
lfoot -22.8401 11.3928
ltoes 14.8574
403
root -10.9247 16.5669 1.03591 -37.1807 70.0236 -53.0915
lowerback 23.409 -2.69317 -12.4685
upperback 11.0574 -5.27439 -3.72538
thorax 0.159509 -2.69952 4.114
lowerneck -15.8707 12.2671 12.1524
upperneck 8.11672 14.7533 -6.31979
head 6.35746 7.12427 -2.27012
rclavicle -6.99722e-014 -6.36111e-014
rhumerus -4.77155 -16.9544 -10.1534
rradius 35.0031
rwrist -11.2763
rhand -20.0642 -39.4791
rfingers 7.12502
rthumb 6.27781 -69.366
lclavicle -6.99722e-014 -6.36111e-014
lhumerus 19.3688 -46.9817 77.8525
lradius 49.9666
lwrist -2.51884
lhand -27.547 -31.7308
lfingers 7.12502
lthumb -0.948396 -1.75313
rfemur -47.0895 -9.46377 35.7684
rtibia 45.281
rfoot -12.8334 9.89702
rtoes -10.9777
lfemur -6.11825 13.6675 -28.8237
ltibia 19.5361
lfoot -20.9591 9.76132
ltoes 14.6209
404
root -10.7238 16.6127 0.948177 -37.5901 71.6986 -54.3825
lowerback 23.4065 -2.80641 -12.3496
upperback 11.0181 -5.38057 -3.63324
thorax 0.128382 -2.73987 4.17127
lowerneck -15.9295 11.949 12.0805
upperneck 7.86947 14.3037 -6.18487
head 6.23219 6.91736 -2.28458
rclavicle 3.18055e-015 -3.18055e-015
rhumerus -4.53199 -17.0636 -11.7643
rradius 33.9016
rwrist -10.2625
rhand -20.8716 -37.9507
rfingers 7.12502
rthumb 5.49837 -67.8594
lclavicle 3.18055e-015 -3.18055e-015
lhumerus 16.8784 -48.3061 79.6569
lradius 50.8939
lwrist -4.47565
lhand -28.2455 -32.7132
lfingers 7.12502
lthumb -1.62305 -2.73965
rfemur -47.4931 -8.23355 37.1586
rtibia 43.1671
rfoot -11.3153 13.4374
rtoes -10.0844
lfemur -5.94184 13.7836 -29.9027
ltibia 18.7404
lfoot -18.3247 8.42637
ltoes 12.292
405
root -10.5134 16.652 0.86026 -39.4902 72.9266 -57.026
lowerback 23.4634 -2.93441 -11.6058
upperback 11.0769 -5.37817 -3.44464
thorax 0.088881 -2.71078 3.97267
lowerneck -15.9869 11.6303 12.0119
upperneck 7.43657 13.8605 -6.15822
head 6.05728 6.70559 -2.33571
rclavicle 6.36111e-015 3.18055e-015
rhumerus -4.31399 -17.5926 -13.4476
rradius 33.6375
rwrist -10.5466
rhand -21.2614 -38.3414
rfingers 7.12502
rthumb 5.12197 -68.2595
lclavicle 6.36111e-015 3.18055e-015
lhumerus 13.9723 -49.2567 81.7507
lradius 51.7254
lwrist -6.46608
lhand -29.1403 -33.651
lfingers 7.12502
lthumb -2.48723 -3.68571
rfemur -47.3998 -6.75215 38.9212
rtibia 40.5497
rfoot -9.04034 17.1294
rtoes -7.74752
lfemur -5.51136 14.3453 -30.0795
ltibia 18.0157
lfoot -15.5041 6.98467
ltoes 9.72233
406
root -10.2936 16.6882 0.765166 -40.8165 74.4768 -59.025
lowerback 23.4086 -3.06831 -11.052
upperback 11.1932 -5.39296 -3.41172
thorax 0.180853 -2.69527 3.70027
lowerneck -16.1249 11.257 11.9044
upperneck 7.00909 13.3381 -6.07433
head 5.88397 6.45645 -2.3687
rclavicle 5.08889e-014 9.54166e-015
rhumerus -4.24437 -17.8079 -15.2103
rradius 33.4314
rwrist -10.2955
rhand -22.117 -38.6594
rfingers 7.12502
rthumb 4.29579 -68.5959
lclavicle 5.08889e-014 9.54166e-015
lhumerus 10.9865 -50.0084 83.7642
lradius 52.53
lwrist -7.95113
lhand -30.02 -34.5265
lfingers 7.12502
lthumb -3.33673 -4.57283
rfemur -47.4481 -5.7088 40.1384
rtibia 37.9153
rfoot -6.00398 20.7451
rtoes -4.39398
lfemur -5.05847 14.9683 -30.7392
ltibia 17.4375
lfoot -13.2734 4.90443
ltoes 10.8135
407
root -10.0803 16.7239 0.662583 -42.6188 76.6891 -61.5868
lowerback 23.4066 -3.29985 -10.6762
upperback 11.2598 -5.57485 -3.42777
thorax 0.232082 -2.75949 3.51002
lowerneck -16.3733 10.7959 11.7684
upperneck 6.8133 12.6883 -5.88863
head 5.78388 6.1488 -2.37035
rclavicle -2.8625e-014 -9.54166e-015
rhumerus -4.17519 -18.5689 -16.9182
rradius 32.9562
rwrist -10.1211
rhand -22.3359 -38.7893
rfingers 7.12502
rthumb 4.08437 -68.7299
lclavicle -2.8625e-014 -9.54166e-015
lhumerus 8.25077 -50.7054 85.557
lradius 53.1136
lwrist -8.43865
lhand -30.553 -35.2818
lfingers 7.12502
lthumb -3.85152 -5.33687
rfemur -47.8458 -4.66179 40.0538
rtibia 36.0851
rfoot -3.28911 23.4827
rtoes 0.65147
lfemur -4.83752 15.5705 -31.9852
ltibia 17.1839
lfoot -10.9893 2.52757
ltoes 11.5375
408
root -9.86197 16.7531 0.553044 -46.1666 79.0387 -65.8005
lowerback 23.4763 -3.54514 -10.1589
upperback 11.3193 -5.75321 -3.35152
thorax 0.229108 -2.8161 3.34707
lowerneck -16.5283 10.2531 11.5229
upperneck 6.52004 11.9714 -5.79359
head 5.63475 5.79964 -2.39759
rclavicle 5.725e-014 -1.59028e-014
rhumerus -4.3961 -18.8413 -18.2993
rradius 32.5509
rwrist -9.66572
rhand -22.532 -38.7342
rfingers 7.12502
rthumb 3.89506 -68.6784
lclavicle 5.725e-014 -1.59028e-014
lhumerus 5.32888 -51.3022 87.5474
lradius 53.5538
lwrist -8.50323
lhand -31.3177 -35.8941
lfingers 7.12502
lthumb -4.58991 -5.96384
rfemur -48.1871 -4.04138 39.7486
rtibia 34.3408
rfoot 0.672977 25.4115
rtoes 11.357
lfemur -4.44124 16.7101 -33.0709
ltibia 17.074
lfoot -8.00824 -0.29448
ltoes 11.4565
409
root -9.63726 16.7726 0.440027 -52.1049 81.4631 -72.3347
lowerback 23.5174 -3.82913 -9.58252
upperback 11.3715 -5.96601 -3.24115
thorax 0.230045 -2.88843 3.19367
lowerneck -16.5976 9.68367 10.9739
upperneck 6.0115 11.2835 -5.62909
head 5.38755 5.46256 -2.36029
rclavicle 0 -3.18055e-015
rhumerus -4.5181 -19.2984 -19.551
rradius 32.5499
rwrist -10.4932
rhand -22.2137 -39.3587
rfingers 7.12502
rthumb 4.20244 -69.297
lclavicle 0 -3.18055e-015
lhumerus 2.23012 -51.5062 89.6552
lradius 53.8654
lwrist -8.26804
lhand -32.1708 -36.7783
lfingers 7.12502
lthumb -5.41362 -6.86742
rfemur -48.4822 -3.664 39.1137
rtibia 32.7333
rfoot 3.42837 25.6393
rtoes 15.7578
lfemur -3.95165 18.2185 -34.0512
ltibia 17.244
lfoot -4.69078 -3.38279
ltoes 9.69852
410
root -9.39851 16.7786 0.320395 -61.6344 83.8611 -82.38
lowerback 23.6548 -4.10494 -9.57135
upperback 11.6546 -6.23705 -2.86025
thorax 0.563992 -3.03668 3.63881
lowerneck -18.4118 9.43804 10.1208
upperneck 6.17965 10.9398 -5.48115
head 5.64042 5.25642 -2.15937
rclavicle 6.04305e-014 1.90833e-014
rhumerus -3.67355 -20.2246 -20.9419
rradius 32.2112
rwrist -10.5909
rhand -22.32 -39.079
rfingers 7.12502
rthumb 4.09977 -69.0193
lclavicle 6.04305e-014 1.90833e-014
lhumerus 0.356252 -50.3188 91.1398
lradius 53.8216
lwrist -8.11979
lhand -32.1724 -37.889
lfingers 7.12502
lthumb -5.41523 -7.97816
rfemur -48.8117 -3.24262 37.8549
rtibia 31.579
rfoot 5.64708 25.3881
rtoes 19.9603
lfemur -3.19031 18.6131 -35.0475
ltibia 17.9623
lfoot -2.35132 -5.87793
ltoes 16.923
411
root -9.16289 16.7796 0.203241 -86.8203 85.9955 -108.02
lowerback 23.7421 -4.35806 -9.0864
upperback 11.4812 -6.46684 -2.76487
thorax 0.298754 -3.10488 3.54045
lowerneck -17.8981 8.69552 9.74867
upperneck 5.77639 10.0405 -5.20219
head 5.33374 4.83885 -2.15286
rclavicle 0 -1.27222e-014
rhumerus -4.43899 -19.8178 -21.8648
rradius 32.0085
rwrist -10.4484
rhand -22.6923 -38.6158
rfingers 7.12502
rthumb 3.74022 -68.5627
lclavicle 0 -1.27222e-014
lhumerus -3.2589 -49.2995 93.6173
lradius 53.6819
lwrist -8.32593
lhand -31.8934 -38.3104
lfingers 7.12502
lthumb -5.14583 -8.39284
rfemur -49.1812 -3.05144 35.9961
rtibia 30.7901
rfoot 7.38849 24.593
rtoes 25.0916
lfemur -2.54477 19.0891 -35.9735
ltibia 19.1358
lfoot -0.406508 -8.40407
ltoes 18.6371
412
root -8.92956 16.7674 0.0865733 -135.931 86.3252 -157.604
lowerback 23.5902 -4.43757 -7.86694
upperback 11.2856 -6.31904 -3.12027
thorax -0.0799712 -2.93535 2.47191
lowerneck -17.177 7.58842 10.3548
upperneck 5.36551 8.46969 -5.02322
head 4.998 4.10876 -2.39778
rclavicle 3.18055e-014 -2.54444e-014
rhumerus -6.9305 -19.7806 -22.5664
rradius 31.906
rwrist -10.2936
rhand -22.9831 -38.3403
rfingers 7.12502
rthumb 3.45942 -68.2919
lclavicle 3.18055e-014 -2.54444e-014
lhumerus -7.0905 -49.4393 95.5722
lradius 53.4814
lwrist -8.31206
lhand -31.8306 -38.4314
lfingers 7.12502
lthumb -5.08519 -8.51243
rfemur -49.6032 -3.14304 33.8427
rtibia 30.8121
rfoot 7.53797 24.2231
rtoes 34.4563
lfemur -2.08949 19.3993 -36.8865
ltibia 20.9037
lfoot 0.857236 -10.8791
ltoes 17.0962
